<?xml version="1.0" standalone="no"?><!-- Generator: Gravit.io --><svg xmlns="http://www.w3.org/2000/svg" xmlns:xlink="http://www.w3.org/1999/xlink" style="isolation:isolate" viewBox="0 0 130 53.72" width="130" height="53.72"><defs><clipPath id="_clipPath_rAPZ64YDqWk9AxrZybNNodzv852aGEBj"><rect width="130" height="53.72"/></clipPath></defs><g clip-path="url(#_clipPath_rAPZ64YDqWk9AxrZybNNodzv852aGEBj)"><clipPath id="_clipPath_HtWu8SwW2V8xl5dNNUfWXbFMCJssoPAd"><rect x="0" y="0" width="130" height="53.72" transform="matrix(1,0,0,1,0,0)" fill="rgb(255,255,255)"/></clipPath><g clip-path="url(#_clipPath_HtWu8SwW2V8xl5dNNUfWXbFMCJssoPAd)"><g id="Group"><path d=" M 0 25 C 0 11.202 11.202 0 25 0 C 38.798 0 50 11.202 50 25 C 50 38.798 38.798 50 25 50 C 11.202 50 0 38.798 0 25 Z " fill="rgb(34,53,83)"/><path d=" M 40.5 25 C 40.5 11.202 51.702 0 65.5 0 C 79.298 0 90.5 11.202 90.5 25 C 90.5 38.798 79.298 50 65.5 50 C 51.702 50 40.5 38.798 40.5 25 Z " fill="rgb(87,112,153)"/><path d=" M 80 25 C 80 11.202 91.202 0 105 0 C 118.798 0 130 11.202 130 25 C 130 38.798 118.798 50 105 50 C 91.202 50 80 38.798 80 25 Z " fill="rgb(182,199,225)"/><g id="Group"><g transform="matrix(1,0,0,1,90,0)"><text transform="matrix(1,0,0,1,0,38.84)" style="font-family:&quot;Cinzel&quot;;font-weight:400;font-size:40px;font-style:normal;fill:#FFFFFF;stroke:none;">H</text></g></g><g id="Group"><g transform="matrix(1,0,0,1,9,0)"><text transform="matrix(1,0,0,1,0.44,38.84)" style="font-family:&quot;Cinzel&quot;;font-weight:400;font-size:40px;font-style:normal;fill:#FFFFFF;stroke:none;">A</text></g></g><g id="Group"><g transform="matrix(1,0,0,1,46,0)"><text transform="matrix(1,0,0,1,0,38.84)" style="font-family:&quot;Cinzel&quot;;font-weight:400;font-size:40px;font-style:normal;fill:#FFFFFF;stroke:none;">G</text></g></g></g></g></g></svg>