<?xml version="1.0" standalone="no"?><!-- Generator: Gravit.io --><svg xmlns="http://www.w3.org/2000/svg" xmlns:xlink="http://www.w3.org/1999/xlink" style="isolation:isolate" viewBox="0 0 260 122.49" width="260" height="122.49"><defs><clipPath id="_clipPath_NWY9Xv4KUN7U7HE4H9Brnd8XlyYJVLO5"><rect width="260" height="122.49"/></clipPath></defs><g clip-path="url(#_clipPath_NWY9Xv4KUN7U7HE4H9Brnd8XlyYJVLO5)"><path d=" M 0 61.245 C 0 39.168 22.404 21.245 50 21.245 C 77.596 21.245 100 39.168 100 61.245 C 100 83.322 77.596 101.245 50 101.245 C 22.404 101.245 0 83.322 0 61.245 Z " fill="rgb(37,59,96)"/><path d=" M 80 61.245 C 80 39.168 102.404 21.245 130 21.245 C 157.596 21.245 180 39.168 180 61.245 C 180 83.322 157.596 101.245 130 101.245 C 102.404 101.245 80 83.322 80 61.245 Z " fill="rgb(63,91,136)"/><g transform="matrix(1,0,0,1,98.5,0)"><text transform="matrix(1,0,0,1,0,91.44)" style="font-family:&quot;Alegreya SC&quot;;font-weight:400;font-size:90px;font-style:normal;fill:#ffffff;stroke:none;">G</text></g><path d=" M 160 61.245 C 160 39.168 182.404 21.245 210 21.245 C 237.596 21.245 260 39.168 260 61.245 C 260 83.322 237.596 101.245 210 101.245 C 182.404 101.245 160 83.322 160 61.245 Z " fill="rgb(133,163,210)"/><g transform="matrix(1,0,0,1,22.5,0)"><text transform="matrix(1,0,0,1,1.62,91.44)" style="font-family:&quot;Alegreya SC&quot;;font-weight:400;font-size:90px;font-style:normal;fill:#ffffff;stroke:none;">A</text></g><g transform="matrix(1,0,0,1,175,0)"><text transform="matrix(1,0,0,1,0,91.44)" style="font-family:&quot;Alegreya SC&quot;;font-weight:400;font-size:90px;font-style:normal;fill:#ffffff;stroke:none;">H</text></g></g></svg>